<?xml version="1.0" encoding="UTF-8"?>

<svg xmlns="http://www.w3.org/2000/svg">

<!-- =======================================================
     THE PIETY PAYCHAIN
     SVG ICON LIBRARY
     Version 1.0
======================================================= -->

<!-- =======================================================
     PAYROLL
======================================================= -->
<symbol id="icon-payroll" viewBox="0 0 64 64">
    <rect x="14" y="10" width="36" height="44" rx="5"
          fill="none"
          stroke="currentColor"
          stroke-width="2.25"/>

    <line x1="22" y1="22" x2="42" y2="22"
          stroke="currentColor"
          stroke-width="2.25"/>

    <line x1="22" y1="31" x2="42" y2="31"
          stroke="currentColor"
          stroke-width="2.25"/>

    <line x1="22" y1="40" x2="36" y2="40"
          stroke="currentColor"
          stroke-width="2.25"/>
</symbol>

<!-- =======================================================
     LEDGER
======================================================= -->
<symbol id="icon-ledger" viewBox="0 0 64 64">

    <rect x="16"
          y="10"
          width="32"
          height="44"
          rx="4"
          fill="none"
          stroke="currentColor"
          stroke-width="2.25"/>

    <line x1="24" y1="20"
          x2="40"
          y2="20"
          stroke="currentColor"
          stroke-width="2.25"/>

    <line x1="24" y1="30"
          x2="40"
          y2="30"
          stroke="currentColor"
          stroke-width="2.25"/>

    <line x1="24" y1="40"
          x2="34"
          y2="40"
          stroke="currentColor"
          stroke-width="2.25"/>

</symbol>

<!-- =======================================================
     SECURITY
======================================================= -->

<symbol id="icon-security" viewBox="0 0 64 64">

<path

d="M32 8
L48 16
V30
C48 42
40 52
32 56
C24 52
16 42
16 30
V16
Z"

fill="none"

stroke="currentColor"

stroke-width="2.25"/>

</symbol>

<!-- =======================================================
     BANK
======================================================= -->

<symbol id="icon-bank" viewBox="0 0 64 64">

<polygon

points="32,10
14,20
50,20"

fill="none"

stroke="currentColor"

stroke-width="2.25"/>

<line x1="18" y1="20" x2="18" y2="46"
stroke="currentColor"
stroke-width="2.25"/>

<line x1="28" y1="20" x2="28" y2="46"
stroke="currentColor"
stroke-width="2.25"/>

<line x1="36" y1="20" x2="36" y2="46"
stroke="currentColor"
stroke-width="2.25"/>

<line x1="46" y1="20" x2="46" y2="46"
stroke="currentColor"
stroke-width="2.25"/>

<line x1="14" y1="48"
x2="50" y2="48"
stroke="currentColor"
stroke-width="2.25"/>

</symbol>

<!-- =======================================================
     WALLET
======================================================= -->

<symbol id="icon-wallet" viewBox="0 0 64 64">

<rect
x="14"
y="18"
width="36"
height="28"
rx="6"

fill="none"

stroke="currentColor"

stroke-width="2.25"/>

<circle
cx="42"
cy="32"
r="2.5"

fill="currentColor"/>

</symbol>

<!-- =======================================================
     MERCHANT
======================================================= -->

<symbol id="icon-merchant" viewBox="0 0 64 64">

<polyline

points="18,22
22,14
42,14
46,22"

fill="none"

stroke="currentColor"

stroke-width="2.25"/>

<rect
x="20"
y="22"
width="24"
height="24"

fill="none"

stroke="currentColor"

stroke-width="2.25"/>

</symbol>

<!-- =======================================================
     NETWORK
======================================================= -->

<symbol id="icon-network" viewBox="0 0 64 64">

<circle
cx="18"
cy="18"
r="4"

fill="none"

stroke="currentColor"

stroke-width="2.25"/>

<circle
cx="46"
cy="18"
r="4"

fill="none"

stroke="currentColor"

stroke-width="2.25"/>

<circle
cx="32"
cy="46"
r="4"

fill="none"

stroke="currentColor"

stroke-width="2.25"/>

<line
x1="22"
y1="18"
x2="42"
y2="18"

stroke="currentColor"

stroke-width="2.25"/>

<line
x1="20"
y1="22"
x2="30"
y2="42"

stroke="currentColor"

stroke-width="2.25"/>

<line
x1="44"
y1="22"
x2="34"
y2="42"

stroke="currentColor"

stroke-width="2.25"/>

</symbol>

<!-- =======================================================
     GROWTH
======================================================= -->

<symbol id="icon-growth" viewBox="0 0 64 64">

<polyline

points="14,46
24,36
34,40
50,20"

fill="none"

stroke="currentColor"

stroke-width="2.5"/>

<polyline

points="42,20
50,20
50,28"

fill="none"

stroke="currentColor"

stroke-width="2.5"/>

</symbol>

<!-- =======================================================
     VALUE ENGINE
======================================================= -->

<symbol id="icon-engine" viewBox="0 0 64 64">

<circle
cx="32"
cy="32"
r="18"

fill="none"

stroke="currentColor"

stroke-width="2.25"/>

<circle
cx="32"
cy="32"
r="6"

fill="currentColor"/>

</symbol>

<!-- =======================================================
     ASSET FUSION
======================================================= -->

<symbol id="icon-fusion" viewBox="0 0 64 64">

<circle
cx="24"
cy="32"
r="8"

fill="none"

stroke="currentColor"

stroke-width="2.25"/>

<circle
cx="40"
cy="32"
r="8"

fill="none"

stroke="currentColor"

stroke-width="2.25"/>

</symbol>

</svg>
